<svg xmlns="http://www.w3.org/2000/svg" version="1.1" xmlns:xlink="http://www.w3.org/1999/xlink" xmlns:svgjs="http://svgjs.dev/svgjs" width="1000" height="1000" viewBox="0 0 1000 1000"><rect width="1000" height="1000" fill="#ffffff"></rect><g transform="matrix(0.7,0,0,0.7,150,281.25)"><svg viewBox="0 0 512 320" data-background-color="#ffffff" preserveAspectRatio="xMidYMid meet" height="625" width="1000" xmlns="http://www.w3.org/2000/svg" xmlns:xlink="http://www.w3.org/1999/xlink"><g id="tight-bounds" transform="matrix(1,0,0,1,0,0)"><svg viewBox="0 0 512 320" height="320" width="512"><g><svg></svg></g><g><svg viewBox="0 0 512 320" height="320" width="512"><g><path d="M96 320l0-320 320 0 0 320zM412.936 316.936l0-313.872-313.872 0 0 313.872z" fill="#ffffff" fill-rule="nonzero" stroke="none" stroke-width="1" stroke-linecap="butt" stroke-linejoin="miter" stroke-miterlimit="10" stroke-dasharray="" stroke-dashoffset="0" font-family="none" font-weight="none" font-size="none" text-anchor="none" style="mix-blend-mode: normal" data-fill-palette-color="tertiary"></path></g><g transform="matrix(1,0,0,1,160.00790194780842,80)"><svg viewBox="0 0 191.9841961043832 160" height="160" width="191.9841961043832"><g><svg viewBox="0 0 436.10487223748686 363.4506431980462" height="160" width="191.9841961043832"><g transform="matrix(1,0,0,1,205.70487223748682,115.97809960227089)"><svg viewBox="0 0 230.40000000000003 131.4944439935044" height="131.4944439935044" width="230.40000000000003"><g id="textblocktransform"><svg viewBox="0 0 230.40000000000003 131.4944439935044" height="131.4944439935044" width="230.40000000000003" id="textblock"><g><svg viewBox="0 0 230.40000000000003 77.17832512315272" height="77.17832512315272" width="230.40000000000003"><g transform="matrix(1,0,0,1,0,0)"><svg width="230.40000000000003" viewBox="3.03 -36.04 109.02 36.53" height="77.17832512315272" data-palette-color="#16a34a"><path d="M26.07-17.7L26.07-4.42 25.29-3.44Q21.92 0.49 15.43 0.49L15.43 0.49Q9.67 0.49 6.38-3.33 3.1-7.15 3.03-14.14L3.03-14.14 3.03-21.12Q3.03-28.59 6.02-32.31 9.01-36.04 14.97-36.04L14.97-36.04Q20.04-36.04 22.91-33.2 25.78-30.37 26.07-25.12L26.07-25.12 21.61-25.12Q21.34-28.44 19.76-30.31 18.19-32.18 14.99-32.18L14.99-32.18Q11.16-32.18 9.38-29.68 7.59-27.17 7.52-21.68L7.52-21.68 7.52-14.43Q7.52-9.06 9.57-6.19 11.62-3.32 15.45-3.32L15.45-3.32Q19.07-3.32 20.95-5.08L20.95-5.08 21.61-5.69 21.61-13.89 15.11-13.89 15.11-17.7 26.07-17.7ZM43.65-26.56L43.67-22.36Q42.77-22.53 41.72-22.53L41.72-22.53Q38.4-22.53 37.08-18.9L37.08-18.9 37.08 0 32.76 0 32.76-26.42 36.96-26.42 37.03-23.73Q38.77-26.9 41.94-26.9L41.94-26.9Q42.97-26.9 43.65-26.56L43.65-26.56ZM56.95 0.49L56.95 0.49Q52.02 0.49 49.38-2.45 46.75-5.4 46.7-11.08L46.7-11.08 46.7-14.28Q46.7-20.19 49.27-23.55 51.85-26.9 56.46-26.9L56.46-26.9Q61.1-26.9 63.4-23.95 65.69-21 65.74-14.75L65.74-14.75 65.74-11.91 51-11.91 51-11.3Q51-7.06 52.6-5.13 54.19-3.2 57.2-3.2L57.2-3.2Q59.1-3.2 60.55-3.92 62.01-4.64 63.28-6.2L63.28-6.2 65.52-3.47Q62.71 0.49 56.95 0.49ZM56.46-23.19L56.46-23.19Q53.78-23.19 52.49-21.35 51.19-19.51 51.02-15.63L51.02-15.63 61.42-15.63 61.42-16.21Q61.25-19.97 60.07-21.58 58.88-23.19 56.46-23.19ZM80.36 0.49L80.36 0.49Q75.43 0.49 72.8-2.45 70.16-5.4 70.11-11.08L70.11-11.08 70.11-14.28Q70.11-20.19 72.69-23.55 75.26-26.9 79.88-26.9L79.88-26.9Q84.51-26.9 86.81-23.95 89.1-21 89.15-14.75L89.15-14.75 89.15-11.91 74.41-11.91 74.41-11.3Q74.41-7.06 76.01-5.13 77.6-3.2 80.61-3.2L80.61-3.2Q82.51-3.2 83.96-3.92 85.42-4.64 86.69-6.2L86.69-6.2 88.93-3.47Q86.13 0.49 80.36 0.49ZM79.88-23.19L79.88-23.19Q77.19-23.19 75.9-21.35 74.6-19.51 74.43-15.63L74.43-15.63 84.83-15.63 84.83-16.21Q84.66-19.97 83.48-21.58 82.29-23.19 79.88-23.19ZM94.33-26.42L98.4-26.42 98.53-23.56Q101.04-26.9 104.95-26.9L104.95-26.9Q111.95-26.9 112.05-17.55L112.05-17.55 112.05 0 107.75 0 107.75-17.36Q107.75-20.46 106.72-21.77 105.68-23.07 103.6-23.07L103.6-23.07Q101.99-23.07 100.71-22 99.43-20.92 98.65-19.19L98.65-19.19 98.65 0 94.33 0 94.33-26.42Z" opacity="1" transform="matrix(1,0,0,1,0,0)" fill="#16a34a" class="undefined-text-0" data-fill-palette-color="primary" id="text-0"></path></svg></g></svg></g><g transform="matrix(1,0,0,1,0,95.39827540492612)"><svg viewBox="0 0 135.26784 36.09616858857829" height="36.09616858857829" width="135.26784"><g transform="matrix(1,0,0,1,0,0)"><svg width="135.26784" viewBox="1.07 -37.5 142.35 37.99" height="36.09616858857829" data-palette-color="#6b7280"><path d="M21.78-35.55L25.95-13.21 29.32-35.55 36.43-35.55 30.1 0 22.9 0 18.75-20.95 14.65 0 7.42 0 1.07-35.55 8.23-35.55 11.57-13.23 15.75-35.55 21.78-35.55ZM46.7-37.5L46.7-24.1Q48.95-26.9 52.22-26.9L52.22-26.9Q55.83-26.9 57.71-24.37 59.59-21.83 59.62-16.8L59.62-16.8 59.62 0 52.68 0 52.68-16.72Q52.68-19.04 51.96-20.08 51.24-21.12 49.63-21.12L49.63-21.12Q47.75-21.12 46.7-19.38L46.7-19.38 46.7 0 39.79 0 39.79-37.5 46.7-37.5ZM75.24 0.49L75.24 0.49Q69.92 0.49 66.94-2.69 63.96-5.86 63.96-11.77L63.96-11.77 63.96-13.87Q63.96-20.12 66.69-23.51 69.43-26.9 74.53-26.9L74.53-26.9Q79.51-26.9 82.03-23.72 84.54-20.53 84.59-14.28L84.59-14.28 84.59-10.89 70.84-10.89Q70.99-7.96 72.14-6.6 73.29-5.25 75.68-5.25L75.68-5.25Q79.15-5.25 81.46-7.62L81.46-7.62 84.17-3.44Q82.91-1.68 80.49-0.6 78.07 0.49 75.24 0.49ZM70.89-15.72L70.89-15.72 77.8-15.72 77.8-16.36Q77.75-18.73 77.02-19.95 76.29-21.17 74.48-21.17 72.68-21.17 71.86-19.87 71.04-18.58 70.89-15.72ZM99.16 0.49L99.16 0.49Q93.84 0.49 90.86-2.69 87.88-5.86 87.88-11.77L87.88-11.77 87.88-13.87Q87.88-20.12 90.62-23.51 93.35-26.9 98.45-26.9L98.45-26.9Q103.43-26.9 105.95-23.72 108.46-20.53 108.51-14.28L108.51-14.28 108.51-10.89 94.77-10.89Q94.91-7.96 96.06-6.6 97.21-5.25 99.6-5.25L99.6-5.25Q103.07-5.25 105.39-7.62L105.39-7.62 108.1-3.44Q106.83-1.68 104.41-0.6 101.99 0.49 99.16 0.49ZM94.82-15.72L94.82-15.72 101.73-15.72 101.73-16.36Q101.68-18.73 100.94-19.95 100.21-21.17 98.41-21.17 96.6-21.17 95.78-19.87 94.96-18.58 94.82-15.72ZM119.67-37.5L119.67 0 112.73 0 112.73-37.5 119.67-37.5ZM136.71-7.08L136.71-7.08Q136.71-7.96 135.86-8.7 135.02-9.45 132.12-10.72L132.12-10.72Q127.84-12.45 126.24-14.31 124.65-16.16 124.65-18.92L124.65-18.92Q124.65-22.39 127.15-24.65 129.65-26.9 133.78-26.9L133.78-26.9Q138.12-26.9 140.73-24.66 143.35-22.41 143.35-18.63L143.35-18.63 136.44-18.63Q136.44-21.85 133.75-21.85L133.75-21.85Q132.65-21.85 131.95-21.17 131.24-20.48 131.24-19.26L131.24-19.26Q131.24-18.38 132.02-17.71 132.8-17.04 135.71-15.8L135.71-15.8Q139.93-14.23 141.67-12.32 143.42-10.4 143.42-7.35L143.42-7.35Q143.42-3.81 140.76-1.66 138.1 0.49 133.78 0.49L133.78 0.49Q130.87 0.49 128.65-0.65 126.43-1.78 125.17-3.81 123.91-5.83 123.91-8.18L123.91-8.18 130.48-8.18Q130.53-6.37 131.32-5.47 132.12-4.57 133.92-4.57L133.92-4.57Q136.71-4.57 136.71-7.08Z" opacity="1" transform="matrix(1,0,0,1,0,0)" fill="#6b7280" class="undefined-text-1" data-fill-palette-color="secondary" id="text-1"></path></svg></g></svg></g></svg></g></svg></g><g><svg viewBox="0 0 187.48492195571342 363.4506431980462" height="363.4506431980462" width="187.48492195571342"><g><svg xmlns="http://www.w3.org/2000/svg" data-name="Layer 1" viewBox="26.4 4.3 47.199999999999996 91.5" x="0" y="0" height="363.4506431980462" width="187.48492195571342" class="icon-icon-0" data-fill-palette-color="accent" id="icon-0"><g data-name="Group" fill="#16a34a" data-fill-palette-color="accent"><path data-name="Compound Path" d="M49.2 94.8a1 1 0 0 0 2 0V85.2h1.9A21.4 21.4 0 0 0 73.6 64.7V61.8a1 1 0 0 0-1-1H69.7A21.4 21.4 0 0 0 51.2 73.3V45.4h0.5a14 14 0 0 0 14-14v-10a3 3 0 0 0-3-3H59.2V5.3a1 1 0 0 0-2 0V18.4h-14V5.3a1 1 0 0 0-2 0V18.4H37.8a3 3 0 0 0-3 3v10a14 14 0 0 0 14 14h0.5V59.6a21.4 21.4 0 0 0-19-13.4H27.4a1 1 0 0 0-0.7 0.3 1 1 0 0 0-0.3 0.7V50A21.4 21.4 0 0 0 46.9 70.4h2.3Zm2.1-13.4A19.3 19.3 0 0 1 69.8 62.9h1.8v1.8A19.3 19.3 0 0 1 53.1 83.1H51.3Zm-14.6-50v-10a1 1 0 0 1 1-1h25a1 1 0 0 1 1 1v10a12 12 0 0 1-12 12h-3A12 12 0 0 1 36.8 31.4ZM47 68.4A19.4 19.4 0 0 1 28.4 49.9V48.1h1.8A19.4 19.4 0 0 1 48.7 66.7v1.8Z" fill="#16a34a" data-fill-palette-color="accent"></path></g></svg></g></svg></g></svg></g></svg></g></svg></g><defs></defs></svg><rect width="512" height="320" fill="none" stroke="none" visibility="hidden"></rect></g></svg></g></svg>